<svg data-v-423bf9ae="" xmlns="http://www.w3.org/2000/svg" viewBox="0 0 348 90" class="iconLeft"><!----><!----><!----><g data-v-423bf9ae="" id="b61f8f4f-c10d-4002-bbfa-4df3618ba870" fill="black" transform="matrix(4.876462936401367,0,0,4.876462936401367,114.90853881835938,14.466839790344238)"><path d="M3.07 4.65L3.07 4.65L3.07 4.65Q3.07 4.49 3.08 4.40L3.08 4.40L3.08 4.40Q3.09 4.30 3.12 4.21L3.12 4.21L3.12 4.21Q3.14 4.13 3.17 4.03L3.17 4.03L3.17 4.03Q3.21 3.93 3.23 3.77L3.23 3.77L3.23 3.77Q3.00 3.74 2.78 3.75L2.78 3.75L2.78 3.75Q2.56 3.77 2.37 3.79L2.37 3.79L2.37 3.79Q2.18 3.82 2.06 3.86L2.06 3.86L2.06 3.86Q1.93 3.89 1.89 3.91L1.89 3.91L1.89 3.91Q1.85 4.06 1.82 4.27L1.82 4.27L1.82 4.27Q1.79 4.48 1.76 4.63L1.76 4.63L1.76 4.63Q1.71 4.90 1.67 5.07L1.67 5.07L1.67 5.07Q1.64 5.24 1.61 5.38L1.61 5.38L1.61 5.38Q1.58 5.53 1.55 5.70L1.55 5.70L1.55 5.70Q1.51 5.87 1.46 6.13L1.46 6.13L1.46 6.13Q1.30 6.83 1.15 7.58L1.15 7.58L1.15 7.58Q0.99 8.33 0.83 9.10L0.83 9.10L0.83 9.10Q0.66 9.87 0.50 10.62L0.50 10.62L0.50 10.62Q0.34 11.37 0.20 12.07L0.20 12.07L0.20 12.07Q0.17 12.18 0.21 12.22L0.21 12.22L0.21 12.22Q0.22 12.24 0.34 12.28L0.34 12.28L0.34 12.28Q0.46 12.32 0.49 12.33L0.49 12.33L0.49 12.33Q0.63 12.39 0.71 12.40L0.71 12.40L0.71 12.40Q0.80 12.42 0.88 12.41L0.88 12.41L0.88 12.41Q0.95 12.40 1.05 12.37L1.05 12.37L1.05 12.37Q1.15 12.33 1.30 12.29L1.30 12.29L1.53 11.03L1.53 11.03Q1.64 10.57 1.76 10.10L1.76 10.10L1.76 10.10Q1.88 9.63 1.97 9.17L1.97 9.17L1.97 9.17Q2.09 9.18 2.14 9.25L2.14 9.25L2.14 9.25Q2.18 9.32 2.30 9.32L2.30 9.32L2.30 9.32Q2.56 9.48 2.95 9.45L2.95 9.45L2.95 9.45Q3.33 9.42 3.73 9.30L3.73 9.30L3.73 9.30Q4.13 9.17 4.51 8.97L4.51 8.97L4.51 8.97Q4.90 8.76 5.18 8.57L5.18 8.57L5.18 8.57Q5.85 8.09 6.28 7.56L6.28 7.56L6.28 7.56Q6.71 7.03 6.86 6.27L6.86 6.27L6.86 6.27Q7.07 5.26 6.51 4.54L6.51 4.54L6.51 4.54Q6.37 4.35 6.22 4.24L6.22 4.24L6.22 4.24Q6.08 4.12 5.92 4.05L5.92 4.05L5.92 4.05Q5.75 3.98 5.57 3.93L5.57 3.93L5.57 3.93Q5.38 3.88 5.15 3.84L5.15 3.84L5.11 3.82L5.11 3.82Q4.76 3.89 4.47 3.93L4.47 3.93L4.47 3.93Q4.19 3.98 3.82 4.16L3.82 4.16L3.82 4.16Q3.63 4.27 3.38 4.42L3.38 4.42L3.38 4.42Q3.14 4.58 3.07 4.65ZM2.27 8.06L2.27 8.06L2.27 8.06Q2.28 7.92 2.35 7.57L2.35 7.57L2.35 7.57Q2.41 7.21 2.50 6.82L2.50 6.82L2.50 6.82Q2.59 6.43 2.71 6.09L2.71 6.09L2.71 6.09Q2.83 5.75 2.94 5.66L2.94 5.66L2.94 5.66Q3.15 5.47 3.45 5.35L3.45 5.35L3.45 5.35Q3.75 5.22 4.08 5.17L4.08 5.17L4.08 5.17Q4.41 5.11 4.73 5.14L4.73 5.14L4.73 5.14Q5.04 5.17 5.28 5.28L5.28 5.28L5.28 5.28Q5.52 5.39 5.63 5.61L5.63 5.61L5.63 5.61Q5.75 5.84 5.68 6.17L5.68 6.17L5.68 6.17Q5.57 6.65 5.33 6.98L5.33 6.98L5.33 6.98Q5.08 7.31 4.75 7.53L4.75 7.53L4.75 7.53Q4.41 7.76 4.01 7.90L4.01 7.90L4.01 7.90Q3.61 8.05 3.21 8.15L3.21 8.15L3.21 8.15Q2.65 8.27 2.27 8.06ZM11.37 3.51L11.37 3.51L11.37 3.51Q11.23 3.53 11.05 3.55L11.05 3.55L11.05 3.55Q10.88 3.57 10.71 3.63L10.71 3.63L10.71 3.63Q10.51 3.70 10.30 3.80L10.30 3.80L10.30 3.80Q10.08 3.91 9.91 4.00L9.91 4.00L9.91 4.00Q9.28 4.34 8.81 4.82L8.81 4.82L8.81 4.82Q8.34 5.29 8.05 5.84L8.05 5.84L8.05 5.84Q7.76 6.38 7.66 6.95L7.66 6.95L7.66 6.95Q7.56 7.52 7.67 8.03L7.67 8.03L7.67 8.03Q7.78 8.54 8.13 8.94L8.13 8.94L8.13 8.94Q8.48 9.34 9.07 9.56L9.07 9.56L9.07 9.56Q9.37 9.67 9.67 9.69L9.67 9.69L9.67 9.69Q10.44 9.73 11.14 9.43L11.14 9.43L11.14 9.43Q11.83 9.13 12.36 8.62L12.36 8.62L12.36 8.62Q12.89 8.12 13.25 7.47L13.25 7.47L13.25 7.47Q13.61 6.82 13.71 6.17L13.71 6.17L13.71 6.17Q13.82 5.52 13.64 4.91L13.64 4.91L13.64 4.91Q13.47 4.31 12.95 3.91L12.95 3.91L12.95 3.91Q12.63 3.65 12.21 3.57L12.21 3.57L12.21 3.57Q11.79 3.49 11.37 3.51ZM12.50 6.20L12.50 6.20L12.50 6.20Q12.39 6.76 12.10 7.18L12.10 7.18L12.10 7.18Q11.82 7.59 11.45 7.86L11.45 7.86L11.45 7.86Q11.07 8.13 10.67 8.27L10.67 8.27L10.67 8.27Q10.26 8.40 9.90 8.39L9.90 8.39L9.90 8.39Q9.53 8.39 9.25 8.24L9.25 8.24L9.25 8.24Q8.97 8.09 8.88 7.80L8.88 7.80L8.88 7.80Q8.79 7.56 8.81 7.29L8.81 7.29L8.81 7.29Q8.82 7.01 8.88 6.73L8.88 6.73L8.88 6.73Q8.90 6.59 8.97 6.46L8.97 6.46L8.97 6.46Q9.04 6.33 9.11 6.19L9.11 6.19L9.11 6.19Q9.42 5.60 9.82 5.25L9.82 5.25L9.82 5.25Q10.22 4.90 10.63 4.75L10.63 4.75L10.63 4.75Q11.05 4.59 11.42 4.63L11.42 4.63L11.42 4.63Q11.80 4.68 12.07 4.87L12.07 4.87L12.07 4.87Q12.35 5.07 12.47 5.41L12.47 5.41L12.47 5.41Q12.60 5.75 12.50 6.20ZM19.10 4.68L19.10 4.68L19.10 4.68Q19.14 4.62 19.20 4.49L19.20 4.49L19.20 4.49Q19.26 4.35 19.31 4.21L19.31 4.21L19.31 4.21Q19.36 4.06 19.38 3.93L19.38 3.93L19.38 3.93Q19.40 3.79 19.35 3.74L19.35 3.74L19.35 3.74Q18.76 3.64 18.32 3.72L18.32 3.72L18.32 3.72Q17.88 3.81 17.54 3.98L17.54 3.98L17.54 3.98Q17.19 4.16 16.93 4.38L16.93 4.38L16.93 4.38Q16.66 4.61 16.44 4.79L16.44 4.79L16.42 4.79L16.42 4.79Q16.45 4.61 16.48 4.41L16.48 4.41L16.48 4.41Q16.52 4.21 16.52 4.03L16.52 4.03L16.52 4.03Q16.45 3.79 16.34 3.69L16.34 3.69L16.34 3.69Q16.23 3.58 16.07 3.54L16.07 3.54L16.07 3.54Q15.96 3.51 15.77 3.54L15.77 3.54L15.77 3.54Q15.58 3.57 15.46 3.57L15.46 3.57L15.46 3.57Q15.41 3.74 15.37 3.90L15.37 3.90L15.37 3.90Q15.32 4.06 15.27 4.21L15.27 4.21L15.27 4.21Q14.99 5.57 14.69 6.91L14.69 6.91L14.69 6.91Q14.38 8.25 14.10 9.60L14.10 9.60L14.10 9.60Q14.18 9.62 14.37 9.63L14.37 9.63L14.37 9.63Q14.56 9.65 14.76 9.64L14.76 9.64L14.76 9.64Q14.97 9.63 15.13 9.58L15.13 9.58L15.13 9.58Q15.30 9.53 15.36 9.41L15.36 9.41L15.36 9.41Q15.44 9.20 15.54 8.83L15.54 8.83L15.54 8.83Q15.64 8.46 15.72 8.04L15.72 8.04L15.72 8.04Q15.81 7.63 15.88 7.24L15.88 7.24L15.88 7.24Q15.96 6.85 16.02 6.61L16.02 6.61L16.02 6.61Q16.20 6.34 16.46 6.04L16.46 6.04L16.46 6.04Q16.72 5.74 17.03 5.47L17.03 5.47L17.03 5.47Q17.35 5.19 17.71 4.98L17.71 4.98L17.71 4.98Q18.07 4.77 18.48 4.68L18.48 4.68L18.48 4.68Q18.51 4.66 18.59 4.66L18.59 4.66L18.59 4.66Q18.68 4.66 18.69 4.68L18.69 4.68L18.69 4.68Q18.79 4.68 18.89 4.68L18.89 4.68L18.89 4.68Q18.98 4.69 19.10 4.68ZM23.95 4.80L23.95 4.80L23.95 4.80Q23.98 4.79 24.03 4.64L24.03 4.64L24.03 4.64Q24.08 4.49 24.11 4.31L24.11 4.31L24.11 4.31Q24.15 4.13 24.17 3.96L24.17 3.96L24.17 3.96Q24.19 3.79 24.15 3.74L24.15 3.74L24.15 3.74Q23.79 3.68 23.27 3.68L23.27 3.68L23.27 3.68Q22.75 3.68 22.30 3.71L22.30 3.71L22.30 3.71Q22.36 3.51 22.41 3.33L22.41 3.33L22.41 3.33Q22.46 3.14 22.51 2.94L22.51 2.94L22.51 2.94Q22.61 2.58 22.67 2.30L22.67 2.30L22.67 2.30Q22.74 2.02 22.85 1.69L22.85 1.69L22.85 1.69Q22.88 1.57 22.91 1.35L22.91 1.35L22.91 1.35Q22.95 1.13 22.96 1.06L22.96 1.06L22.96 1.06Q22.88 1.06 22.67 1.04L22.67 1.04L22.67 1.04Q22.46 1.02 22.36 1.05L22.36 1.05L22.36 1.05Q22.22 1.08 22.07 1.12L22.07 1.12L22.07 1.12Q21.92 1.16 21.80 1.19L21.80 1.19L21.80 1.19Q21.60 1.55 21.52 1.98L21.52 1.98L21.52 1.98Q21.43 2.41 21.34 2.79L21.34 2.79L21.34 2.79Q21.28 3.01 21.22 3.25L21.22 3.25L21.22 3.25Q21.17 3.49 21.10 3.72L21.10 3.72L21.10 3.72Q20.72 3.72 20.36 3.76L20.36 3.76L20.36 3.76Q19.99 3.79 19.89 3.91L19.89 3.91L19.89 3.91Q19.80 4.27 19.75 4.52L19.75 4.52L19.75 4.52Q19.71 4.77 19.82 4.93L19.82 4.93L19.82 4.93Q19.95 4.93 20.20 4.93L20.20 4.93L20.20 4.93Q20.47 4.93 20.80 4.91L20.80 4.91L20.80 4.91Q20.68 5.45 20.55 5.92L20.55 5.92L20.55 5.92Q20.41 6.47 20.30 6.90L20.30 6.90L20.30 6.90Q20.19 7.34 20.18 7.71L20.18 7.71L20.18 7.71Q20.17 8.08 20.32 8.42L20.32 8.42L20.32 8.42Q20.47 8.76 20.85 9.14L20.85 9.14L20.85 9.14Q21.07 9.37 21.30 9.43L21.30 9.43L21.30 9.43Q21.53 9.49 21.91 9.51L21.91 9.51L21.91 9.51Q22.18 9.51 22.39 9.50L22.39 9.50L22.39 9.50Q22.60 9.49 22.78 9.42L22.78 9.42L22.78 9.42Q22.96 9.34 23.15 9.16L23.15 9.16L23.15 9.16Q23.34 8.99 23.58 8.65L23.58 8.65L23.58 8.65Q23.58 8.58 23.53 8.47L23.53 8.47L23.53 8.47Q23.48 8.36 23.37 8.26L23.37 8.26L23.37 8.26Q23.27 8.16 23.11 8.13L23.11 8.13L23.11 8.13Q22.96 8.11 22.75 8.20L22.75 8.20L22.75 8.20Q22.51 8.41 22.26 8.39L22.26 8.39L22.26 8.39Q22.01 8.36 21.87 8.27L21.87 8.27L21.87 8.27Q21.56 8.08 21.46 7.84L21.46 7.84L21.46 7.84Q21.36 7.60 21.46 7.22L21.46 7.22L21.46 7.22Q21.62 6.59 21.74 6.03L21.74 6.03L21.74 6.03Q21.87 5.47 22.01 4.90L22.01 4.90L22.01 4.90Q22.68 4.89 23.24 4.87L23.24 4.87L23.24 4.87Q23.80 4.84 23.95 4.80ZM29.16 4.80L29.16 4.80L29.16 4.80Q29.18 4.79 29.22 4.64L29.22 4.64L29.22 4.64Q29.27 4.49 29.31 4.31L29.31 4.31L29.31 4.31Q29.34 4.13 29.36 3.96L29.36 3.96L29.36 3.96Q29.37 3.79 29.33 3.74L29.33 3.74L29.33 3.74Q28.97 3.68 28.43 3.70L28.43 3.70L28.43 3.70Q27.89 3.71 27.43 3.72L27.43 3.72L27.68 2.93L27.68 2.93Q27.82 2.55 28.05 2.12L28.05 2.12L28.05 2.12Q28.28 1.69 28.69 1.48L28.69 1.48L28.69 1.48Q28.77 1.44 28.96 1.39L28.96 1.39L28.96 1.39Q29.15 1.33 29.33 1.31L29.33 1.31L29.33 1.31Q29.51 1.29 29.64 1.33L29.64 1.33L29.64 1.33Q29.78 1.37 29.74 1.53L29.74 1.53L29.74 1.53Q29.76 1.60 29.78 1.71L29.78 1.71L29.78 1.71Q29.81 1.82 29.88 1.83L29.88 1.83L29.88 1.83Q29.89 1.85 30.00 1.83L30.00 1.83L30.00 1.83Q30.11 1.82 30.24 1.80L30.24 1.80L30.24 1.80Q30.37 1.78 30.49 1.76L30.49 1.76L30.49 1.76Q30.62 1.74 30.67 1.72L30.67 1.72L30.67 1.72Q30.84 1.53 30.84 1.40L30.84 1.40L30.84 1.40Q30.84 1.27 30.79 1.05L30.79 1.05L30.79 1.05Q30.72 0.73 30.58 0.56L30.58 0.56L30.58 0.56Q30.45 0.39 30.26 0.32L30.26 0.32L30.26 0.32Q30.07 0.24 29.82 0.24L29.82 0.24L29.82 0.24Q29.58 0.24 29.30 0.25L29.30 0.25L29.30 0.25Q28.94 0.28 28.66 0.35L28.66 0.35L28.66 0.35Q28.39 0.42 28.04 0.66L28.04 0.66L28.04 0.66Q27.64 0.94 27.35 1.29L27.35 1.29L27.35 1.29Q27.06 1.65 26.85 2.05L26.85 2.05L26.85 2.05Q26.64 2.45 26.49 2.88L26.49 2.88L26.49 2.88Q26.35 3.30 26.24 3.74L26.24 3.74L26.24 3.74Q25.86 3.75 25.51 3.79L25.51 3.79L25.51 3.79Q25.17 3.84 25.06 3.95L25.06 3.95L25.06 3.95Q24.98 4.31 24.94 4.56L24.94 4.56L24.94 4.56Q24.91 4.80 25.03 4.96L25.03 4.96L25.03 4.96Q25.14 4.96 25.39 4.95L25.39 4.95L25.39 4.95Q25.63 4.94 25.96 4.94L25.96 4.94L25.94 5.00L25.94 5.00Q25.79 5.74 25.61 6.46L25.61 6.46L25.61 6.46Q25.44 7.18 25.27 7.92L25.27 7.92L25.27 7.92Q25.17 8.30 25.06 8.74L25.06 8.74L25.06 8.74Q24.95 9.17 24.98 9.53L24.98 9.53L24.98 9.53Q25.09 9.55 25.21 9.59L25.21 9.59L25.21 9.59Q25.34 9.63 25.48 9.65L25.48 9.65L25.48 9.65Q25.51 9.66 25.59 9.65L25.59 9.65L25.59 9.65Q25.68 9.65 25.77 9.64L25.77 9.64L25.77 9.64Q25.86 9.63 25.95 9.63L25.95 9.63L25.95 9.63Q26.04 9.62 26.08 9.62L26.08 9.62L26.08 9.62Q26.11 9.53 26.17 9.32L26.17 9.32L26.17 9.32Q26.24 9.11 26.26 8.97L26.26 8.97L26.26 8.97Q26.33 8.65 26.40 8.37L26.40 8.37L26.40 8.37Q26.46 8.09 26.53 7.73L26.53 7.73L26.53 7.73Q26.68 7.03 26.82 6.33L26.82 6.33L26.82 6.33Q26.95 5.63 27.13 4.91L27.13 4.91L27.13 4.91Q27.47 4.90 27.80 4.89L27.80 4.89L27.80 4.89Q28.14 4.89 28.41 4.87L28.41 4.87L28.41 4.87Q28.69 4.86 28.88 4.84L28.88 4.84L28.88 4.84Q29.08 4.83 29.16 4.80ZM32.90 3.51L32.90 3.51L32.90 3.51Q32.76 3.53 32.58 3.55L32.58 3.55L32.58 3.55Q32.41 3.57 32.24 3.63L32.24 3.63L32.24 3.63Q32.05 3.70 31.83 3.80L31.83 3.80L31.83 3.80Q31.61 3.91 31.44 4.00L31.44 4.00L31.44 4.00Q30.81 4.34 30.34 4.82L30.34 4.82L30.34 4.82Q29.88 5.29 29.58 5.84L29.58 5.84L29.58 5.84Q29.29 6.38 29.19 6.95L29.19 6.95L29.19 6.95Q29.09 7.52 29.20 8.03L29.20 8.03L29.20 8.03Q29.32 8.54 29.67 8.94L29.67 8.94L29.67 8.94Q30.02 9.34 30.60 9.56L30.60 9.56L30.60 9.56Q30.90 9.67 31.21 9.69L31.21 9.69L31.21 9.69Q31.98 9.73 32.67 9.43L32.67 9.43L32.67 9.43Q33.36 9.13 33.89 8.62L33.89 8.62L33.89 8.62Q34.43 8.12 34.78 7.47L34.78 7.47L34.78 7.47Q35.14 6.82 35.24 6.17L35.24 6.17L35.24 6.17Q35.35 5.52 35.17 4.91L35.17 4.91L35.17 4.91Q35 4.31 34.48 3.91L34.48 3.91L34.48 3.91Q34.16 3.65 33.74 3.57L33.74 3.57L33.74 3.57Q33.32 3.49 32.90 3.51ZM34.03 6.20L34.03 6.20L34.03 6.20Q33.92 6.76 33.63 7.18L33.63 7.18L33.63 7.18Q33.35 7.59 32.98 7.86L32.98 7.86L32.98 7.86Q32.61 8.13 32.20 8.27L32.20 8.27L32.20 8.27Q31.79 8.40 31.43 8.39L31.43 8.39L31.43 8.39Q31.07 8.39 30.79 8.24L30.79 8.24L30.79 8.24Q30.51 8.09 30.41 7.80L30.41 7.80L30.41 7.80Q30.32 7.56 30.34 7.29L30.34 7.29L30.34 7.29Q30.35 7.01 30.41 6.73L30.41 6.73L30.41 6.73Q30.44 6.59 30.51 6.46L30.51 6.46L30.51 6.46Q30.58 6.33 30.65 6.19L30.65 6.19L30.65 6.19Q30.95 5.60 31.35 5.25L31.35 5.25L31.35 5.25Q31.75 4.90 32.16 4.75L32.16 4.75L32.16 4.75Q32.58 4.59 32.96 4.63L32.96 4.63L32.96 4.63Q33.33 4.68 33.61 4.87L33.61 4.87L33.61 4.87Q33.88 5.07 34.01 5.41L34.01 5.41L34.01 5.41Q34.13 5.75 34.03 6.20ZM35.84 9.28L35.84 9.28L35.84 9.28Q35.91 9.39 36.03 9.40L36.03 9.40L36.03 9.40Q36.15 9.41 36.27 9.44L36.27 9.44L36.27 9.44Q36.41 9.46 36.54 9.49L36.54 9.49L36.54 9.49Q36.67 9.51 36.77 9.49L36.77 9.49L36.77 9.49Q36.88 9.46 36.96 9.36L36.96 9.36L36.96 9.36Q37.04 9.25 37.09 9.03L37.09 9.03L37.09 9.03Q37.30 8.06 37.48 7.11L37.48 7.11L37.48 7.11Q37.67 6.16 37.87 5.19L37.87 5.19L37.87 5.19Q38.11 4.06 38.37 2.93L38.37 2.93L38.37 2.93Q38.64 1.79 38.89 0.64L38.89 0.64L38.89 0.64Q38.93 0.45 38.91 0.24L38.91 0.24L38.91 0.24Q38.79 0.10 38.66 0.11L38.66 0.11L38.66 0.11Q38.53 0.11 38.35 0.11L38.35 0.11L38.35 0.11Q38.14 0.22 37.93 0.28L37.93 0.28L37.93 0.28Q37.65 1.08 37.44 1.88L37.44 1.88L37.44 1.88Q37.23 2.69 37.04 3.49L37.04 3.49L36.75 4.82L36.75 4.82Q36.65 5.24 36.60 5.50L36.60 5.50L36.60 5.50Q36.54 5.75 36.49 5.99L36.49 5.99L36.49 5.99Q36.44 6.22 36.39 6.48L36.39 6.48L36.39 6.48Q36.34 6.73 36.27 7.15L36.27 7.15L36.27 7.15Q36.23 7.36 36.17 7.64L36.17 7.64L36.17 7.64Q36.11 7.92 36.04 8.22L36.04 8.22L36.04 8.22Q35.97 8.51 35.91 8.79L35.91 8.79L35.91 8.79Q35.85 9.07 35.84 9.28ZM41.26 1.68L41.26 1.68L41.26 1.68Q41.15 1.62 41.03 1.58L41.03 1.58L41.03 1.58Q40.91 1.53 40.68 1.61L40.68 1.61L40.68 1.61Q40.29 1.76 40.10 2.05L40.10 2.05L40.10 2.05Q39.90 2.34 39.89 2.61L39.89 2.61L39.89 2.61Q39.89 2.88 40.08 3.07L40.08 3.07L40.08 3.07Q40.28 3.26 40.66 3.21L40.66 3.21L40.66 3.21Q40.92 3.16 41.14 2.98L41.14 2.98L41.14 2.98Q41.36 2.79 41.46 2.54L41.46 2.54L41.46 2.54Q41.57 2.30 41.53 2.06L41.53 2.06L41.53 2.06Q41.50 1.82 41.26 1.68ZM39.61 4.97L39.61 4.97L39.61 4.97Q39.58 5.08 39.50 5.42L39.50 5.42L39.50 5.42Q39.42 5.75 39.32 6.21L39.32 6.21L39.32 6.21Q39.21 6.66 39.09 7.18L39.09 7.18L39.09 7.18Q38.98 7.69 38.87 8.15L38.87 8.15L38.87 8.15Q38.77 8.61 38.68 8.95L38.68 8.95L38.68 8.95Q38.60 9.30 38.57 9.42L38.57 9.42L38.57 9.42Q38.63 9.42 38.82 9.44L38.82 9.44L38.82 9.44Q39.02 9.46 39.23 9.46L39.23 9.46L39.23 9.46Q39.44 9.45 39.62 9.40L39.62 9.40L39.62 9.40Q39.80 9.35 39.84 9.23L39.84 9.23L39.84 9.23Q39.89 9.10 39.98 8.73L39.98 8.73L39.98 8.73Q40.08 8.36 40.20 7.86L40.20 7.86L40.20 7.86Q40.32 7.36 40.45 6.81L40.45 6.81L40.45 6.81Q40.57 6.26 40.67 5.77L40.67 5.77L40.67 5.77Q40.77 5.28 40.83 4.91L40.83 4.91L40.83 4.91Q40.89 4.54 40.89 4.41L40.89 4.41L40.89 4.41Q40.78 4.40 40.66 4.35L40.66 4.35L40.66 4.35Q40.53 4.31 40.39 4.30L40.39 4.30L40.39 4.30Q40.31 4.27 40.09 4.30L40.09 4.30L40.09 4.30Q39.87 4.33 39.79 4.33L39.79 4.33L39.79 4.33Q39.76 4.41 39.70 4.63L39.70 4.63L39.70 4.63Q39.63 4.84 39.61 4.97ZM45.25 3.51L45.25 3.51L45.25 3.51Q45.11 3.53 44.93 3.55L44.93 3.55L44.93 3.55Q44.76 3.57 44.59 3.63L44.59 3.63L44.59 3.63Q44.39 3.70 44.18 3.80L44.18 3.80L44.18 3.80Q43.96 3.91 43.79 4.00L43.79 4.00L43.79 4.00Q43.16 4.34 42.69 4.82L42.69 4.82L42.69 4.82Q42.22 5.29 41.93 5.84L41.93 5.84L41.93 5.84Q41.64 6.38 41.54 6.95L41.54 6.95L41.54 6.95Q41.44 7.52 41.55 8.03L41.55 8.03L41.55 8.03Q41.66 8.54 42.01 8.94L42.01 8.94L42.01 8.94Q42.36 9.34 42.95 9.56L42.95 9.56L42.95 9.56Q43.25 9.67 43.55 9.69L43.55 9.69L43.55 9.69Q44.32 9.73 45.02 9.43L45.02 9.43L45.02 9.43Q45.71 9.13 46.24 8.62L46.24 8.62L46.24 8.62Q46.77 8.12 47.13 7.47L47.13 7.47L47.13 7.47Q47.49 6.82 47.59 6.17L47.59 6.17L47.59 6.17Q47.70 5.52 47.52 4.91L47.52 4.91L47.52 4.91Q47.35 4.31 46.83 3.91L46.83 3.91L46.83 3.91Q46.51 3.65 46.09 3.57L46.09 3.57L46.09 3.57Q45.67 3.49 45.25 3.51ZM46.38 6.20L46.38 6.20L46.38 6.20Q46.27 6.76 45.98 7.18L45.98 7.18L45.98 7.18Q45.70 7.59 45.32 7.86L45.32 7.86L45.32 7.86Q44.95 8.13 44.55 8.27L44.55 8.27L44.55 8.27Q44.14 8.40 43.78 8.39L43.78 8.39L43.78 8.39Q43.41 8.39 43.13 8.24L43.13 8.24L43.13 8.24Q42.85 8.09 42.76 7.80L42.76 7.80L42.76 7.80Q42.67 7.56 42.69 7.29L42.69 7.29L42.69 7.29Q42.70 7.01 42.76 6.73L42.76 6.73L42.76 6.73Q42.78 6.59 42.85 6.46L42.85 6.46L42.85 6.46Q42.92 6.33 42.99 6.19L42.99 6.19L42.99 6.19Q43.30 5.60 43.70 5.25L43.70 5.25L43.70 5.25Q44.10 4.90 44.51 4.75L44.51 4.75L44.51 4.75Q44.93 4.59 45.30 4.63L45.30 4.63L45.30 4.63Q45.68 4.68 45.95 4.87L45.95 4.87L45.95 4.87Q46.23 5.07 46.35 5.41L46.35 5.41L46.35 5.41Q46.48 5.75 46.38 6.20Z"></path></g><!----><g data-v-423bf9ae="" id="33559e51-d056-46d0-bbb7-0d473669c7eb" transform="matrix(2.994410514831543,0,0,2.994410514831543,0.0894317626953125,-1.938568115234375)" stroke="none" fill="black"><path d="M17.572 23.933l4.106 7.095L32 13.189h-8.981V7.582L11.51.972 0 7.582v13.222l11.51 6.611 6.062-3.482zm10.96-8.744l-6.855 11.846-6.855-11.846h13.71z"></path></g><!----></svg>